<?xml version="1.0" standalone="no"?><svg xmlns="http://www.w3.org/2000/svg" viewBox="0 0 1440 320"><path fill="#070E3C" fill-opacity="1" d="M0,64L40,74.7C80,85,160,107,240,133.3C320,160,400,192,480,218.7C560,245,640,267,720,229.3C800,192,880,96,960,80C1040,64,1120,128,1200,165.3C1280,203,1360,213,1400,218.7L1440,224L1440,320L1400,320C1360,320,1280,320,1200,320C1120,320,1040,320,960,320C880,320,800,320,720,320C640,320,560,320,480,320C400,320,320,320,240,320C160,320,80,320,40,320L0,320Z"></path></svg>